# xmcd
#
# Track frame offsets: 
#        150
#        20796
#        35849
#        50122
#        63113
#        76024
#        94386
#        115457
#        124017
#        149216
#        165167
#        174643
#
# Disc length: 2550 seconds
#
# Revision: 0
# Processed by: cddbd v1.5.2PL0 Copyright (c) Steve Scherf et al.
# Submitted via: ExactAudioCopy v0.99pb5
#
DISCID=ab09f40c
DTITLE=The Low Anthem - Oh my god, Charlie Darwin
DYEAR=2009
DGENRE=Country
TTITLE0=01. Charlie Darwin
TTITLE1=02. To Ohio
TTITLE2=03. Ticket Taker
TTITLE3=04. The Horizon is a Beltway
TTITLE4=05. Home I'll Never Be
TTITLE5=06. Cage The Song Bird
TTITLE6=07. (Don't) Tremble
TTITLE7=08. Music Box
TTITLE8=09. Champion Angel
TTITLE9=10. To the Ghosts Who Write History Books
TTITLE10=11. OMGCD
TTITLE11=12. To Ohio (reprise)
EXTD=
EXTT0=
EXTT1=
EXTT2=
EXTT3=
EXTT4=
EXTT5=
EXTT6=
EXTT7=
EXTT8=
EXTT9=
EXTT10=
EXTT11=
PLAYORDER=
